<svg xmlns="http://www.w3.org/2000/svg" xmlns:xlink="http://www.w3.org/1999/xlink" width="294px" height="294px" viewBox="0 0 294 294"><title>Combined Shape</title><g id="Page-1" stroke="none" stroke-width="1" fill="none" fill-rule="evenodd"><g id="Banner" transform="translate(0.000000, -105.000000)" fill="#CDD4FB"><path d="M18,252 L9,261 L0,252 L9,243 L18,252 M50,252 L43,259 L36,252 L43,245 L50,252 M86,251 L80,257 L74,251 L80,245 L86,251 M120,252 L115.001882,257 L110,252 L115.001882,247 L120,252 M154,251 L150,255 L146,251 L150,247 L154,251 M34,271 L26,279 L18,271 L26,263 L34,271 M68,270 L61.0019204,277 L54,270 L61.0019204,263 L68,270 M102,270 L97,275 L92,270 L97,265 L102,270 M136,271 L132,275 L128,271 L132,267 L136,271 M172,270 L169,273 L166,270 L169,267 L172,270 M50,288 L43,295 L36,288 L43,281 L50,288 M86,287 L80,293 L74,287 L80,281 L86,287 M120,288 L115.001882,293 L110,288 L115.001882,283 L120,288 M154,287 L150,291 L146,287 L150,283 L154,287 M188,288 L185,291 L182,288 L185,285 L188,288 M68,306 L61.0019204,313 L54,306 L61.0019204,299 L68,306 M102,304 L97,309 L92,304 L97,299 L102,304 M136,305 L132,309 L128,305 L132,301 L136,305 M172,304 L169,307 L166,304 L169,301 L172,304 M208,306 L205.001912,309 L202,306 L205.001912,303 L208,306 M86,323 L80,329 L74,323 L80,317 L86,323 M120,324 L115.001882,329 L110,324 L115.001882,319 L120,324 M154,323 L150,327 L146,323 L150,319 L154,323 M188,324 L185,327 L182,324 L185,321 L188,324 M226,324 L223,327 L220,324 L223,321 L226,324 M102,342 L97,347 L92,342 L97,337 L102,342 M136,341 L132,345 L128,341 L132,337 L136,341 M172,342 L169,345 L166,342 L169,339 L172,342 M208,340 L205.001912,343 L202,340 L205.001912,337 L208,340 M242,341 L240.001574,343 L238,341 L240.001574,339 L242,341 M120,360 L115.001882,365 L110,360 L115.001882,355 L120,360 M154,359 L150,363 L146,359 L150,355 L154,359 M188,358 L185,361 L182,358 L185,355 L188,358 M226,358 L223,361 L220,358 L223,355 L226,358 M260,359 L258,361 L256,359 L258,357 L260,359 M136,377 L132,381 L128,377 L132,373 L136,377 M172,376 L169,379 L166,376 L169,373 L172,376 M208,378 L205.001912,381 L202,378 L205.001912,375 L208,378 M242,377 L240.001574,379 L238,377 L240.001574,375 L242,377 M278,377 L276,379 L274,377 L276,375 L278,377 M154,395 L150,399 L146,395 L150,391 L154,395 M188,394 L185,397 L182,394 L185,391 L188,394 M226,394 L223,397 L220,394 L223,391 L226,394 M260,395 L258,397 L256,395 L258,393 L260,395 M294,394.000108 L293,395 L292,394.000108 L293,393 L294,394.000108 M34,233 L26,241 L18,233 L26,225 L34,233 M68,234 L61.0019204,241 L54,234 L61.0019204,227 L68,234 M102,234 L97,239 L92,234 L97,229 L102,234 M136,233 L132,237 L128,233 L132,229 L136,233 M172,234 L169,237 L166,234 L169,231 L172,234 M50,216 L43,223 L36,216 L43,209 L50,216 M86,217 L80,223 L74,217 L80,211 L86,217 M120,216 L115.001882,221 L110,216 L115.001882,211 L120,216 M154,217 L150,221 L146,217 L150,213 L154,217 M188,216 L185,219 L182,216 L185,213 L188,216 M68,198 L61.0019204,205 L54,198 L61.0019204,191 L68,198 M102,200 L97,205 L92,200 L97,195 L102,200 M136,199 L132,203 L128,199 L132,195 L136,199 M172,200 L169,203 L166,200 L169,197 L172,200 M208,198 L205.001912,201 L202,198 L205.001912,195 L208,198 M86,181 L80,187 L74,181 L80,175 L86,181 M120,180 L115.001882,185 L110,180 L115.001882,175 L120,180 M154,181 L150,185 L146,181 L150,177 L154,181 M188,180 L185,183 L182,180 L185,177 L188,180 M226,180 L223,183 L220,180 L223,177 L226,180 M102,162 L97,167 L92,162 L97,157 L102,162 M136,163 L132,167 L128,163 L132,159 L136,163 M172,162 L169,165 L166,162 L169,159 L172,162 M208,164 L205.001912,167 L202,164 L205.001912,161 L208,164 M242,163 L240.001574,165 L238,163 L240.001574,161 L242,163 M120,144 L115.001882,149 L110,144 L115.001882,139 L120,144 M154,145 L150,149 L146,145 L150,141 L154,145 M188,146 L185,149 L182,146 L185,143 L188,146 M226,146 L223,149 L220,146 L223,143 L226,146 M260,145 L258,147 L256,145 L258,143 L260,145 M136,127 L132,131 L128,127 L132,123 L136,127 M172,128 L169,131 L166,128 L169,125 L172,128 M208,126 L205.001912,129 L202,126 L205.001912,123 L208,126 M242,127 L240.001574,129 L238,127 L240.001574,125 L242,127 M278,127 L276,129 L274,127 L276,125 L278,127 M154,109 L150,113 L146,109 L150,105 L154,109 M188,110 L185,113 L182,110 L185,107 L188,110 M226,110 L223,113 L220,110 L223,107 L226,110 M260,109 L258,111 L256,109 L258,107 L260,109 M294,110 L293,111 L292,110 L293,109 L294,110" id="Combined-Shape" transform="translate(147.000000, 252.000000) scale(-1, 1) translate(-147.000000, -252.000000) "></path></g></g></svg>