<svg xmlns="http://www.w3.org/2000/svg" width="24" height="15" viewBox="0 0 24 15"><g fill="none" fill-rule="evenodd"><path d="M6.76 5.21c0 .3.04.54.1.71.06.18.13.37.25.58.04.06.05.13.05.18 0 .08-.05.16-.15.24l-.5.34a.38.38 0 0 1-.21.07c-.08 0-.16-.04-.24-.11-.11-.12-.2-.25-.29-.38a6.18 6.18 0 0 1-.24-.47c-.63.73-1.4 1.1-2.35 1.1-.67 0-1.2-.19-1.6-.57C1.2 6.5 1 6 1 5.36c0-.67.24-1.23.73-1.64a2.9 2.9 0 0 1 1.95-.62c.28 0 .56.02.85.06.3.04.6.1.92.18v-.59c0-.6-.13-1.03-.38-1.27-.25-.25-.68-.37-1.3-.37-.28 0-.56.03-.86.1a6.36 6.36 0 0 0-1.14.38.49.49 0 0 1-.13.02c-.11 0-.17-.08-.17-.25V.97c0-.12.02-.22.06-.28a.6.6 0 0 1 .22-.16A4.84 4.84 0 0 1 4 .02c.95 0 1.65.21 2.1.64.43.43.66 1.09.66 1.97V5.2h.01ZM3.52 6.43c.27 0 .54-.05.82-.15.3-.1.55-.27.76-.5.13-.16.23-.33.27-.52.05-.2.08-.42.08-.7v-.33a6.67 6.67 0 0 0-1.48-.18c-.54 0-.93.1-1.19.32-.26.21-.4.52-.4.91 0 .38.1.66.3.85.2.2.48.3.84.3Zm6.41.86c-.14 0-.24-.03-.3-.08s-.12-.16-.17-.31L7.6.73A1.4 1.4 0 0 1 7.5.4c0-.13.07-.2.2-.2h.78c.15 0 .25.02.3.08.07.05.12.16.17.3l1.34 5.3 1.24-5.3c.04-.15.1-.25.16-.3a.55.55 0 0 1 .32-.08h.63c.16 0 .26.02.32.08.07.05.12.16.16.3l1.26 5.36L15.77.6c.05-.16.1-.26.16-.31a.52.52 0 0 1 .3-.08h.75c.13 0 .2.06.2.2 0 .04 0 .08-.02.12 0 .05-.02.12-.05.2L15.18 6.9c-.04.16-.1.27-.16.32a.51.51 0 0 1-.3.08h-.7c-.14 0-.25-.03-.31-.08-.07-.06-.12-.16-.15-.32l-1.24-5.15-1.23 5.14c-.04.16-.09.26-.15.32-.07.05-.18.08-.32.08h-.69Zm10.26.21a5.28 5.28 0 0 1-2.15-.46c-.13-.07-.21-.15-.25-.22a.56.56 0 0 1-.04-.23v-.4c0-.17.06-.25.18-.25.05 0 .1 0 .14.02l.2.08a4.34 4.34 0 0 0 1.83.38c.5 0 .9-.09 1.17-.27a.86.86 0 0 0 .41-.75c0-.23-.07-.41-.21-.56a2 2 0 0 0-.81-.42l-1.16-.36a2.43 2.43 0 0 1-1.27-.81 1.9 1.9 0 0 1 .39-2.7c.24-.18.5-.32.83-.41a3.48 3.48 0 0 1 1.54-.1l.52.08a6.2 6.2 0 0 1 .79.27c.1.06.19.13.24.2.04.06.07.15.07.26v.38c0 .17-.07.25-.19.25a.83.83 0 0 1-.3-.1c-.45-.2-.96-.3-1.53-.3-.46 0-.82.07-1.06.22-.25.15-.38.38-.38.71 0 .23.08.42.24.57.16.15.46.3.88.44l1.13.36c.58.18 1 .44 1.24.76.25.33.37.7.37 1.12 0 .34-.07.65-.21.93-.14.27-.34.5-.58.7-.25.2-.55.34-.89.45a3.8 3.8 0 0 1-1.14.16Z" fill="#252F3E" fill-rule="nonzero"></path><g fill="#F90"><path d="M21.7 11.38c-2.63 1.94-6.44 2.97-9.72 2.97-4.6 0-8.74-1.7-11.87-4.52-.25-.23-.03-.53.27-.36a23.94 23.94 0 0 0 11.88 3.16c2.9 0 6.1-.6 9.05-1.85.44-.2.82.28.39.6Z"></path><path d="M22.8 10.14c-.34-.43-2.23-.21-3.08-.1-.26.03-.3-.2-.07-.37 1.5-1.05 3.97-.75 4.26-.4.29.36-.08 2.83-1.49 4.01-.21.19-.42.09-.32-.15.32-.79 1.03-2.57.7-3Z"></path></g></g></svg>