<svg xmlns="http://www.w3.org/2000/svg" width="24" height="20" viewBox="0 0 24 20"><g fill-rule="nonzero" fill="none"><path d="M15.23 5.67h.73l2.09-2.09.1-.88A9.38 9.38 0 0 0 2.9 7.27c.23-.1.48-.1.73-.04l4.17-.69s.21-.35.32-.33a5.2 5.2 0 0 1 7.12-.54h-.01Z" fill="#EA4335"></path><path d="M21.02 7.27a9.4 9.4 0 0 0-2.83-4.56l-2.93 2.92a5.2 5.2 0 0 1 1.9 4.13v.52a2.6 2.6 0 1 1 0 5.21h-5.2l-.52.53v3.13l.52.52h5.2a6.78 6.78 0 0 0 3.86-12.4Z" fill="#4285F4"></path><path d="M6.74 19.64h5.21v-4.18H6.74a2.6 2.6 0 0 1-1.08-.23l-.73.23-2.1 2.08-.18.74a6.74 6.74 0 0 0 4.09 1.36Z" fill="#34A853"></path><path d="M6.74 6.1a6.78 6.78 0 0 0-4.1 12.15l3.03-3.02a2.6 2.6 0 1 1 3.45-3.45l3.02-3.02a6.77 6.77 0 0 0-5.4-2.66Z" fill="#FBBC05"></path></g></svg>