<svg xmlns="http://www.w3.org/2000/svg" xmlns:xlink="http://www.w3.org/1999/xlink" width="24" height="18" viewBox="0 0 24 18"><defs><path id="a" d="M0 0h24v16.76H0z"></path></defs><g fill="none" fill-rule="evenodd"><g transform="translate(0 .67)"><mask id="b" fill="#fff"><use xlink:href="#a"></use></mask><path d="M9.97 1.84a4.2 4.2 0 0 1 6.75.89 5.2 5.2 0 0 1 7.27 4.78 5.2 5.2 0 0 1-6.2 5.12 3.8 3.8 0 0 1-4.97 1.56 4.32 4.32 0 0 1-8.02-.2 4.03 4.03 0 0 1-4.83-3.96c0-1.5.81-2.8 2-3.51A4.64 4.64 0 0 1 6.27 0c1.5 0 2.86.72 3.7 1.84" fill="#00A1E0" fill-rule="nonzero" mask="url(#b)"></path></g><path d="M3.47 9.38c-.01.04 0 .05.01.06l.14.08c.24.13.47.17.72.17.49 0 .8-.26.8-.69 0-.4-.35-.54-.67-.64l-.05-.01c-.24-.08-.45-.15-.45-.3v-.02c0-.14.12-.24.31-.24.21 0 .47.07.63.16 0 0 .05.03.06-.01l.1-.27c.01-.03 0-.05-.02-.06a1.4 1.4 0 0 0-.7-.19H4.3c-.46 0-.77.28-.77.67 0 .41.35.55.67.64l.05.02c.24.07.45.13.45.3 0 .16-.14.27-.35.27-.08 0-.35 0-.64-.18l-.08-.05c-.01 0-.05-.02-.06.02l-.1.27m7.21 0c-.02.04 0 .05.01.06l.14.08c.24.13.47.17.72.17.49 0 .8-.26.8-.69 0-.4-.35-.54-.68-.64l-.04-.01c-.24-.08-.45-.15-.45-.31 0-.15.12-.25.31-.25.21 0 .46.07.63.16 0 0 .04.03.06-.01l.1-.27c.01-.03 0-.05-.02-.06a1.4 1.4 0 0 0-.7-.19h-.06c-.45 0-.76.27-.76.66v.01c0 .41.34.55.67.64l.05.02c.24.07.44.13.44.3 0 .16-.13.27-.34.27-.09 0-.35 0-.64-.18l-.08-.05s-.05-.02-.06.02l-.1.27m4.92-.82c0 .23-.04.42-.13.56-.09.13-.22.2-.4.2-.18 0-.31-.07-.4-.2a1.03 1.03 0 0 1-.13-.56c0-.24.05-.43.13-.56.09-.13.22-.2.4-.2.18 0 .31.07.4.2a1 1 0 0 1 .13.56m.41-.44a1 1 0 0 0-.18-.36.9.9 0 0 0-.32-.24 1.03 1.03 0 0 0-.44-.09c-.17 0-.32.03-.44.09a.9.9 0 0 0-.5.6 1.56 1.56 0 0 0 0 .88c.04.14.1.26.18.36.09.1.2.18.32.23.12.06.27.1.44.1.17 0 .31-.04.44-.1a.89.89 0 0 0 .32-.23A1 1 0 0 0 16 9a1.56 1.56 0 0 0 0-.88m3.38 1.12c-.01-.04-.05-.02-.05-.02a.94.94 0 0 1-.42.07.63.63 0 0 1-.47-.18c-.11-.11-.17-.3-.17-.56 0-.23.05-.4.15-.54.1-.13.26-.2.46-.2.17 0 .3.02.44.06 0 0 .03.02.04-.03l.1-.28c.02-.03-.01-.04-.02-.05a1.6 1.6 0 0 0-1.04 0 .95.95 0 0 0-.53.6c-.05.14-.07.28-.07.44 0 .34.1.62.27.82.18.2.46.3.81.3.22 0 .43-.04.59-.1 0 0 .03-.01.01-.05l-.1-.28m.72-.91a.8.8 0 0 1 .11-.33c.09-.13.22-.2.4-.2.18 0 .3.07.4.2.05.08.07.2.08.33h-1 .01Zm1.39-.3a.87.87 0 0 0-.18-.32.81.81 0 0 0-.67-.28c-.17 0-.33.03-.45.09a.92.92 0 0 0-.51.6 1.56 1.56 0 0 0 0 .9.91.91 0 0 0 .55.58c.14.05.31.08.5.08.4 0 .62-.1.7-.14.02 0 .04-.02.02-.07l-.1-.25c0-.04-.04-.03-.04-.03-.1.04-.25.1-.58.1-.21 0-.37-.06-.47-.16-.1-.1-.16-.25-.16-.46h1.39s.04 0 .04-.03c0-.02.05-.3-.04-.6Zm-12.53.3A.8.8 0 0 1 9.08 8c.09-.13.22-.2.4-.2.18 0 .3.07.39.2.06.08.08.2.09.33h-1Zm1.38-.3a.87.87 0 0 0-.44-.52 1.1 1.1 0 0 0-.86 0 .92.92 0 0 0-.5.61 1.57 1.57 0 0 0 0 .9c.04.13.1.25.2.35.09.1.2.17.35.23.14.05.3.08.5.08.4 0 .62-.1.7-.14.02 0 .03-.02.01-.07l-.09-.25c-.01-.04-.05-.03-.05-.03-.1.04-.24.1-.57.1-.22 0-.38-.06-.48-.16-.1-.1-.15-.25-.16-.46h1.4s.03 0 .04-.03c0-.02.04-.3-.05-.6Zm-4.4 1.2a.27.27 0 0 1-.07-.08.33.33 0 0 1-.04-.18c0-.12.04-.2.12-.27 0 0 .12-.1.4-.1.13 0 .26.02.38.03v.64s-.17.04-.37.05c-.29.01-.41-.08-.41-.08Zm.56-.97-.21-.01c-.12 0-.24.02-.35.04a.9.9 0 0 0-.29.14.67.67 0 0 0-.2.23c-.05.09-.07.2-.07.32s.02.23.06.32c.04.08.1.16.18.22.08.05.17.1.29.12.1.02.23.04.36.04.15 0 .29-.02.43-.04a8.4 8.4 0 0 0 .44-.1c.04 0 .04-.04.04-.04V8.23c0-.28-.08-.48-.23-.61-.14-.13-.36-.2-.63-.2-.1 0-.28.02-.38.04 0 0-.3.06-.43.16 0 0-.02.01 0 .05l.09.27c.01.03.05.02.05.02l.02-.01c.27-.15.6-.14.6-.14.15 0 .27.03.35.09.07.05.11.14.11.33v.06l-.23-.03Zm11.2-.72a.04.04 0 0 0-.01-.05c-.03-.01-.14-.04-.24-.04a.7.7 0 0 0-.59.23v-.17c0-.02-.02-.04-.04-.04h-.36c-.02 0-.04.02-.04.04v2.07c0 .03.02.05.05.05h.36c.03 0 .04-.02.04-.05V8.54c0-.14.02-.27.05-.36a.52.52 0 0 1 .12-.2c.05-.05.1-.09.17-.1a.68.68 0 0 1 .2-.04l.14.02c.03 0 .05-.01.05-.03.03-.07.1-.26.1-.3" fill="#FFFFFE" fill-rule="nonzero"></path><path d="M14.3 6.58a1.17 1.17 0 0 0-.32-.05.8.8 0 0 0-.59.22c-.14.14-.23.35-.28.63l-.02.1h-.31s-.04-.01-.05.03l-.05.3c0 .02 0 .04.04.04h.31l-.31 1.74c-.02.14-.05.25-.08.34a.7.7 0 0 1-.1.2.26.26 0 0 1-.13.1.52.52 0 0 1-.27 0l-.08-.01s-.03-.02-.05.02c-.01.03-.1.25-.1.28-.01.03 0 .05.02.06l.13.03c.07.02.14.02.2.02.13 0 .25-.02.34-.05.1-.04.18-.1.26-.18a.92.92 0 0 0 .18-.31c.05-.13.09-.29.12-.47l.32-1.77h.45s.04 0 .05-.04l.05-.3c0-.02 0-.04-.04-.04h-.45s.03-.16.08-.31a.4.4 0 0 1 .1-.15.29.29 0 0 1 .11-.07c.05-.02.1-.03.15-.02a.58.58 0 0 1 .19.02c.04.02.05 0 .06-.02l.1-.29c.01-.03-.01-.04-.02-.05M8.09 9.6c0 .03-.02.04-.04.04h-.37c-.02 0-.04-.01-.04-.04V6.62c0-.02.02-.04.04-.04h.37c.02 0 .04.02.04.04V9.6" fill="#FFFFFE" fill-rule="nonzero"></path></g></svg>